<?xml version="1.0" encoding="UTF-8"?>
<svg id="Layer_2" data-name="Layer 2" xmlns="http://www.w3.org/2000/svg" viewBox="0 0 623.71 277.81">
  <defs>
    <style>
      .cls-1 {
        stroke-dasharray: 4 4;
      }

      .cls-1, .cls-2, .cls-3 {
        fill: none;
        stroke: #fff;
        stroke-miterlimit: 10;
      }

      .cls-2 {
        stroke-dasharray: 4;
      }

      .cls-4 {
        letter-spacing: 0em;
      }

      .cls-5, .cls-6 {
        fill: #fff;
      }

      .cls-7 {
        letter-spacing: -.03em;
      }

      .cls-8 {
        letter-spacing: -.03em;
      }

      .cls-9 {
        letter-spacing: -.01em;
      }

      .cls-6 {
        font-family: GTFAltiTRIAL-Regular, 'GTF Alti TRIAL';
        font-size: 30px;
      }

      .cls-10 {
        letter-spacing: 0em;
      }
    </style>
  </defs>
  <g id="Layer_1-2" data-name="Layer 1">
    <g>
      <g>
        <text class="cls-6" transform="translate(232.81 84.61)"><tspan x="0" y="0">A</tspan><tspan class="cls-7" x="17.88" y="0">r</tspan><tspan x="25.5" y="0">chi</tspan><tspan class="cls-7" x="56.76" y="0">v</tspan><tspan x="67.14" y="0">e </tspan><tspan class="cls-10" x="87.06" y="0">Mode</tspan><tspan class="cls-4" x="151.35" y="0">l</tspan></text>
        <rect class="cls-3" x="221.12" y="48.65" width="183.54" height="51.77"/>
      </g>
      <g>
        <g>
          <text class="cls-6" transform="translate(392.45 221.84)"><tspan x="0" y="0">Di</tspan><tspan class="cls-7" x="25.08" y="0">s</tspan><tspan class="cls-10" x="36.48" y="0">t</tspan><tspan x="45.57" y="0">ri</tspan><tspan class="cls-10" x="59.67" y="0">but</tspan><tspan x="96.48" y="0">i</tspan><tspan class="cls-10" x="102.06" y="0">n</tspan><tspan x="115.14" y="0">g Li</tspan><tspan class="cls-9" x="155.07" y="0">b</tspan><tspan class="cls-7" x="169.71" y="0">r</tspan><tspan x="177.33" y="0">ary</tspan></text>
          <rect class="cls-3" x="378.6" y="187.19" width="244.61" height="51.77"/>
        </g>
        <path class="cls-5" d="M485,270.57c-1.66-1.86-2.49-4.21-2.49-7.05,0-1.84.38-3.5,1.14-4.98.76-1.48,1.83-2.65,3.21-3.51,1.38-.86,2.93-1.29,4.65-1.29,2.08,0,3.86.56,5.34,1.68,1.48,1.12,2.86,2.66,4.14,4.62,1.24-1.92,2.6-3.45,4.08-4.59,1.48-1.14,3.22-1.71,5.22-1.71,2.64,0,4.8.93,6.48,2.79,1.68,1.86,2.52,4.19,2.52,6.99s-.84,5.19-2.52,7.05c-1.68,1.86-3.84,2.79-6.48,2.79-2.12,0-3.91-.56-5.37-1.68-1.46-1.12-2.83-2.68-4.11-4.68-1.24,1.92-2.6,3.46-4.08,4.62-1.48,1.16-3.22,1.74-5.22,1.74-2.68,0-4.85-.93-6.51-2.79ZM495.38,267.66c1.02-.96,2.07-2.32,3.15-4.08-1.12-1.84-2.18-3.23-3.18-4.17-1-.94-2.2-1.41-3.6-1.41s-2.6.52-3.48,1.56c-.88,1.04-1.32,2.36-1.32,3.96s.44,2.98,1.32,4.02c.88,1.04,2.04,1.56,3.48,1.56s2.61-.48,3.63-1.44ZM513.56,267.54c.86-1.04,1.29-2.38,1.29-4.02s-.43-2.92-1.29-3.96c-.86-1.04-2.01-1.56-3.45-1.56s-2.6.46-3.6,1.38c-1,.92-2.1,2.3-3.3,4.14,1.2,1.84,2.3,3.23,3.3,4.17,1,.94,2.2,1.41,3.6,1.41s2.59-.52,3.45-1.56Z"/>
      </g>
      <g>
        <g>
          <text class="cls-6" transform="translate(19.46 223.15)"><tspan x="0" y="0">Ci</tspan><tspan class="cls-7" x="25.71" y="0">r</tspan><tspan x="33.33" y="0">cu</tspan><tspan class="cls-10" x="58.41" y="0">lat</tspan><tspan x="87.42" y="0">i</tspan><tspan class="cls-10" x="93" y="0">n</tspan><tspan x="106.08" y="0">g Li</tspan><tspan class="cls-10" x="146.01" y="0">b</tspan><tspan class="cls-8" x="160.65" y="0">r</tspan><tspan x="168.27" y="0">ary</tspan></text>
          <rect class="cls-3" x=".5" y="187.19" width="244.61" height="51.77"/>
        </g>
        <path class="cls-5" d="M116.15,276.01c-2.06-1.2-3.69-2.83-4.89-4.89-1.2-2.06-1.8-4.29-1.8-6.69s.6-4.63,1.8-6.69c1.2-2.06,2.83-3.69,4.89-4.89,2.06-1.2,4.29-1.8,6.69-1.8s4.62.6,6.66,1.8,3.66,2.83,4.86,4.89c1.2,2.06,1.8,4.29,1.8,6.69s-.6,4.63-1.8,6.69c-1.2,2.06-2.82,3.69-4.86,4.89s-4.26,1.8-6.66,1.8-4.63-.6-6.69-1.8ZM127.16,271.99c1.32-.8,2.36-1.87,3.12-3.21.76-1.34,1.14-2.79,1.14-4.35s-.38-3.01-1.14-4.35c-.76-1.34-1.8-2.41-3.12-3.21s-2.76-1.2-4.32-1.2-3,.39-4.32,1.17c-1.32.78-2.37,1.85-3.15,3.21-.78,1.36-1.17,2.82-1.17,4.38s.39,3.02,1.17,4.38c.78,1.36,1.83,2.43,3.15,3.21,1.32.78,2.76,1.17,4.32,1.17s3-.4,4.32-1.2Z"/>
      </g>
      <path class="cls-5" d="M296.07,0h33.65v33.6h-33.65V0ZM325.59,29.9V3.65h-25.39v26.26h25.39ZM310.18,13.87h5.47v5.57h-5.47v-5.57Z"/>
      <line class="cls-2" x1="221.12" y1="100.43" x2="122.81" y2="187.19"/>
      <line class="cls-2" x1="404.66" y1="100.43" x2="502.98" y2="187.19"/>
      <g>
        <line class="cls-1" x1="245.11" y1="202.94" x2="364.88" y2="202.94"/>
        <polygon class="cls-5" points="361.57 207.03 360.89 206.3 364.5 202.94 360.89 199.58 361.57 198.85 365.97 202.94 361.57 207.03"/>
      </g>
      <g>
        <line class="cls-1" x1="377.23" y1="221.84" x2="257.46" y2="221.84"/>
        <polygon class="cls-5" points="260.78 217.75 261.46 218.48 257.85 221.83 261.46 225.19 260.78 225.92 256.38 221.83 260.78 217.75"/>
      </g>
    </g>
  </g>
</svg>