<?xml version="1.0" encoding="UTF-8"?>
<svg id="Layer_2" data-name="Layer 2" xmlns="http://www.w3.org/2000/svg" viewBox="0 0 624.71 277.81">
  <defs>
    <style>
      .cls-1 {
        stroke-dasharray: 4;
      }

      .cls-1, .cls-2 {
        fill: none;
        stroke: #fff;
        stroke-miterlimit: 10;
      }

      .cls-3, .cls-4 {
        fill: #fff;
      }

      .cls-5 {
        letter-spacing: -.03em;
      }

      .cls-6 {
        letter-spacing: -.03em;
      }

      .cls-4 {
        font-family: GTFAltiTRIAL-Regular, 'GTF Alti TRIAL';
        font-size: 26px;
      }

      .cls-7 {
        letter-spacing: -.01em;
      }

      .cls-8 {
        letter-spacing: 0em;
      }

      .cls-2 {
        stroke-width: 2px;
      }
    </style>
  </defs>
  <g id="Layer_1-2" data-name="Layer 1">
    <g>
      <text class="cls-4" transform="translate(245.39 84.41)"><tspan x="0" y="0">A</tspan><tspan class="cls-5" x="15.5" y="0">r</tspan><tspan x="22.1" y="0">chi</tspan><tspan class="cls-6" x="49.19" y="0">v</tspan><tspan x="58.19" y="0">e </tspan><tspan class="cls-8" x="75.45" y="0">Mode</tspan><tspan x="131.17" y="0">l</tspan></text>
      <rect class="cls-2" x="221.62" y="48.65" width="183.54" height="51.77"/>
      <text class="cls-4" transform="translate(409.51 221.63)"><tspan x="0" y="0">Di</tspan><tspan class="cls-5" x="21.74" y="0">s</tspan><tspan class="cls-7" x="31.62" y="0">t</tspan><tspan x="39.49" y="0">ri</tspan><tspan class="cls-8" x="51.71" y="0">but</tspan><tspan x="83.62" y="0">i</tspan><tspan class="cls-8" x="88.45" y="0">n</tspan><tspan x="99.79" y="0">g Li</tspan><tspan class="cls-7" x="134.39" y="0">b</tspan><tspan class="cls-5" x="147.08" y="0">r</tspan><tspan x="153.68" y="0">ary</tspan></text>
      <rect class="cls-2" x="379.1" y="187.19" width="244.61" height="51.77"/>
      <path class="cls-3" d="M485.5,270.57c-1.66-1.86-2.49-4.21-2.49-7.05,0-1.84.38-3.5,1.14-4.98.76-1.48,1.83-2.65,3.21-3.51,1.38-.86,2.93-1.29,4.65-1.29,2.08,0,3.86.56,5.34,1.68,1.48,1.12,2.86,2.66,4.14,4.62,1.24-1.92,2.6-3.45,4.08-4.59,1.48-1.14,3.22-1.71,5.22-1.71,2.64,0,4.8.93,6.48,2.79,1.68,1.86,2.52,4.19,2.52,6.99s-.84,5.19-2.52,7.05c-1.68,1.86-3.84,2.79-6.48,2.79-2.12,0-3.91-.56-5.37-1.68-1.46-1.12-2.83-2.68-4.11-4.68-1.24,1.92-2.6,3.46-4.08,4.62-1.48,1.16-3.22,1.74-5.22,1.74-2.68,0-4.85-.93-6.51-2.79ZM495.88,267.66c1.02-.96,2.07-2.32,3.15-4.08-1.12-1.84-2.18-3.23-3.18-4.17-1-.94-2.2-1.41-3.6-1.41s-2.6.52-3.48,1.56c-.88,1.04-1.32,2.36-1.32,3.96s.44,2.98,1.32,4.02c.88,1.04,2.04,1.56,3.48,1.56s2.61-.48,3.63-1.44ZM514.06,267.54c.86-1.04,1.29-2.38,1.29-4.02s-.43-2.92-1.29-3.96c-.86-1.04-2.01-1.56-3.45-1.56s-2.6.46-3.6,1.38c-1,.92-2.1,2.3-3.3,4.14,1.2,1.84,2.3,3.23,3.3,4.17,1,.94,2.2,1.41,3.6,1.41s2.59-.52,3.45-1.56Z"/>
      <text class="cls-4" transform="translate(35.34 222.95)"><tspan x="0" y="0">Ci</tspan><tspan class="cls-5" x="22.28" y="0">r</tspan><tspan x="28.89" y="0">cu</tspan><tspan class="cls-7" x="50.62" y="0">lat</tspan><tspan x="75.76" y="0">i</tspan><tspan class="cls-8" x="80.6" y="0">n</tspan><tspan x="91.94" y="0">g Li</tspan><tspan class="cls-8" x="126.54" y="0">b</tspan><tspan class="cls-6" x="139.23" y="0">r</tspan><tspan x="145.83" y="0">ary</tspan></text>
      <rect class="cls-2" x="1" y="187.19" width="244.61" height="51.77"/>
      <path class="cls-3" d="M116.65,276.01c-2.06-1.2-3.69-2.83-4.89-4.89-1.2-2.06-1.8-4.29-1.8-6.69s.6-4.63,1.8-6.69c1.2-2.06,2.83-3.69,4.89-4.89,2.06-1.2,4.29-1.8,6.69-1.8s4.62.6,6.66,1.8,3.66,2.83,4.86,4.89c1.2,2.06,1.8,4.29,1.8,6.69s-.6,4.63-1.8,6.69c-1.2,2.06-2.82,3.69-4.86,4.89s-4.26,1.8-6.66,1.8-4.63-.6-6.69-1.8ZM127.66,271.99c1.32-.8,2.36-1.87,3.12-3.21.76-1.34,1.14-2.79,1.14-4.35s-.38-3.01-1.14-4.35c-.76-1.34-1.8-2.41-3.12-3.21s-2.76-1.2-4.32-1.2-3,.39-4.32,1.17c-1.32.78-2.37,1.85-3.15,3.21-.78,1.36-1.17,2.82-1.17,4.38s.39,3.02,1.17,4.38c.78,1.36,1.83,2.43,3.15,3.21,1.32.78,2.76,1.17,4.32,1.17s3-.4,4.32-1.2Z"/>
      <path class="cls-3" d="M296.57,0h33.65v33.6h-33.65V0ZM326.09,29.9V3.65h-25.39v26.26h25.39ZM310.68,13.87h5.47v5.57h-5.47v-5.57Z"/>
      <line class="cls-1" x1="221.62" y1="100.43" x2="123.31" y2="187.19"/>
      <line class="cls-1" x1="405.16" y1="100.43" x2="503.48" y2="187.19"/>
    </g>
  </g>
</svg>